<svg width="1179" height="110" viewBox="0 0 1179 110" fill="none" xmlns="http://www.w3.org/2000/svg">
<path d="M24.792 109.52C16.7867 109.52 10.656 107.24 6.4 102.68C2.24533 98.12 0.168 91.6853 0.168 83.376V26.224C0.168 17.9147 2.24533 11.48 6.4 6.92C10.656 2.36 16.7867 0.0799942 24.792 0.0799942C32.7973 0.0799942 38.8773 2.36 43.032 6.92C47.288 11.48 49.416 17.9147 49.416 26.224V37.472H33.608V25.16C33.608 18.5733 30.8213 15.28 25.248 15.28C19.6747 15.28 16.888 18.5733 16.888 25.16V84.592C16.888 91.0773 19.6747 94.32 25.248 94.32C30.8213 94.32 33.608 91.0773 33.608 84.592V68.328H49.416V83.376C49.416 91.6853 47.288 98.12 43.032 102.68C38.8773 107.24 32.7973 109.52 24.792 109.52ZM83.8844 109.52C75.6764 109.52 69.3937 107.189 65.0364 102.528C60.679 97.8667 58.5004 91.28 58.5004 82.768V26.832C58.5004 18.32 60.679 11.7333 65.0364 7.07199C69.3937 2.41066 75.6764 0.0799942 83.8844 0.0799942C92.0924 0.0799942 98.375 2.41066 102.732 7.07199C107.09 11.7333 109.268 18.32 109.268 26.832V82.768C109.268 91.28 107.09 97.8667 102.732 102.528C98.375 107.189 92.0924 109.52 83.8844 109.52ZM83.8844 94.32C89.6604 94.32 92.5484 90.824 92.5484 83.832V25.768C92.5484 18.776 89.6604 15.28 83.8844 15.28C78.1084 15.28 75.2204 18.776 75.2204 25.768V83.832C75.2204 90.824 78.1084 94.32 83.8844 94.32ZM120.576 1.59999H137.296V92.8H164.808V108H120.576V1.59999ZM172.826 1.59999H189.546V92.8H217.058V108H172.826V1.59999ZM225.076 1.59999H270.676V16.8H241.796V44.92H264.748V60.12H241.796V92.8H270.676V108H225.076V1.59999ZM304.007 109.52C295.9 109.52 289.719 107.24 285.463 102.68C281.207 98.0187 279.078 91.3813 279.078 82.768V26.832C279.078 18.2187 281.207 11.632 285.463 7.07199C289.719 2.41066 295.9 0.0799942 304.007 0.0799942C312.113 0.0799942 318.295 2.41066 322.551 7.07199C326.807 11.632 328.935 18.2187 328.935 26.832V35.952H313.126V25.768C313.126 18.776 310.239 15.28 304.463 15.28C298.687 15.28 295.799 18.776 295.799 25.768V83.984C295.799 90.8747 298.687 94.32 304.463 94.32C310.239 94.32 313.126 90.8747 313.126 83.984V63.16H304.767V47.96H328.935V82.768C328.935 91.3813 326.807 98.0187 322.551 102.68C318.295 107.24 312.113 109.52 304.007 109.52ZM339.67 1.59999H385.27V16.8H356.39V44.92H379.342V60.12H356.39V92.8H385.27V108H339.67V1.59999ZM419.232 1.59999H444.008C452.621 1.59999 458.904 3.62666 462.856 7.68C466.808 11.632 468.784 17.7627 468.784 26.072V32.608C468.784 43.6533 465.136 50.6453 457.84 53.584V53.888C461.893 55.104 464.731 57.5867 466.352 61.336C468.075 65.0853 468.936 70.1013 468.936 76.384V95.08C468.936 98.12 469.037 100.603 469.24 102.528C469.443 104.352 469.949 106.176 470.76 108H453.736C453.128 106.277 452.723 104.656 452.52 103.136C452.317 101.616 452.216 98.88 452.216 94.928V75.472C452.216 70.608 451.405 67.2133 449.784 65.288C448.264 63.3627 445.579 62.4 441.728 62.4H435.952V108H419.232V1.59999ZM442.032 47.2C445.376 47.2 447.859 46.3387 449.48 44.616C451.203 42.8933 452.064 40.0053 452.064 35.952V27.744C452.064 23.8933 451.355 21.1067 449.936 19.384C448.619 17.6613 446.491 16.8 443.552 16.8H435.952V47.2H442.032ZM480.537 1.59999H526.137V16.8H497.257V44.92H520.209V60.12H497.257V92.8H526.137V108H480.537V1.59999ZM535.755 1.59999H560.379C568.689 1.59999 574.921 3.82933 579.075 8.288C583.23 12.7467 585.307 19.2827 585.307 27.896V38.384C585.307 46.9973 583.23 53.5333 579.075 57.992C574.921 62.4507 568.689 64.68 560.379 64.68H552.475V108H535.755V1.59999ZM560.379 49.48C563.115 49.48 565.142 48.72 566.459 47.2C567.878 45.68 568.587 43.096 568.587 39.448V26.832C568.587 23.184 567.878 20.6 566.459 19.08C565.142 17.56 563.115 16.8 560.379 16.8H552.475V49.48H560.379ZM594.388 1.59999H619.164C627.778 1.59999 634.06 3.62666 638.012 7.68C641.964 11.632 643.94 17.7627 643.94 26.072V32.608C643.94 43.6533 640.292 50.6453 632.996 53.584V53.888C637.05 55.104 639.887 57.5867 641.508 61.336C643.231 65.0853 644.092 70.1013 644.092 76.384V95.08C644.092 98.12 644.194 100.603 644.396 102.528C644.599 104.352 645.106 106.176 645.916 108H628.892C628.284 106.277 627.879 104.656 627.676 103.136C627.474 101.616 627.372 98.88 627.372 94.928V75.472C627.372 70.608 626.562 67.2133 624.94 65.288C623.42 63.3627 620.735 62.4 616.884 62.4H611.108V108H594.388V1.59999ZM617.188 47.2C620.532 47.2 623.015 46.3387 624.636 44.616C626.359 42.8933 627.22 40.0053 627.22 35.952V27.744C627.22 23.8933 626.511 21.1067 625.092 19.384C623.775 17.6613 621.647 16.8 618.708 16.8H611.108V47.2H617.188ZM655.693 1.59999H701.293V16.8H672.413V44.92H695.365V60.12H672.413V92.8H701.293V108H655.693V1.59999ZM732.945 109.52C724.838 109.52 718.707 107.24 714.553 102.68C710.398 98.0187 708.321 91.3813 708.321 82.768V76.688H724.129V83.984C724.129 90.8747 727.017 94.32 732.793 94.32C735.63 94.32 737.758 93.5093 739.177 91.888C740.697 90.1653 741.457 87.4293 741.457 83.68C741.457 79.2213 740.443 75.32 738.417 71.976C736.39 68.5307 732.641 64.4267 727.169 59.664C720.278 53.584 715.465 48.112 712.729 43.248C709.993 38.2827 708.625 32.7093 708.625 26.528C708.625 18.1173 710.753 11.632 715.009 7.07199C719.265 2.41066 725.446 0.0799942 733.553 0.0799942C741.558 0.0799942 747.587 2.41066 751.641 7.07199C755.795 11.632 757.873 18.2187 757.873 26.832V31.24H742.065V25.768C742.065 22.12 741.355 19.4853 739.937 17.864C738.518 16.1413 736.441 15.28 733.705 15.28C728.131 15.28 725.345 18.6747 725.345 25.464C725.345 29.3147 726.358 32.912 728.385 36.256C730.513 39.6 734.313 43.6533 739.785 48.416C746.777 54.496 751.59 60.0187 754.225 64.984C756.859 69.9493 758.177 75.776 758.177 82.464C758.177 91.1787 755.998 97.8667 751.641 102.528C747.385 107.189 741.153 109.52 732.945 109.52ZM767.763 1.59999H813.363V16.8H784.483V44.92H807.435V60.12H784.483V92.8H813.363V108H767.763V1.59999ZM822.982 1.59999H843.958L860.222 65.288H860.526V1.59999H875.422V108H858.246L838.182 30.328H837.878V108H822.982V1.59999ZM900.921 16.8H883.441V1.59999H935.121V16.8H917.641V108H900.921V16.8ZM949.16 1.59999H971.808L989.136 108H972.416L969.376 86.872V87.176H950.376L947.336 108H931.832L949.16 1.59999ZM967.4 72.736L959.952 20.144H959.648L952.352 72.736H967.4ZM1003.34 16.8H985.863V1.59999H1037.54V16.8H1020.06V108H1003.34V16.8ZM1045.64 1.59999H1062.36V108H1045.64V1.59999ZM1070.47 1.59999H1087.34L1098.29 84.136H1098.59L1109.54 1.59999H1124.89L1108.78 108H1086.58L1070.47 1.59999ZM1132.92 1.59999H1178.52V16.8H1149.64V44.92H1172.59V60.12H1149.64V92.8H1178.52V108H1132.92V1.59999Z" fill="url(#paint0_linear_0_5)"/>
<defs>
<linearGradient id="paint0_linear_0_5" x1="597" y1="-29" x2="597" y2="203" gradientUnits="userSpaceOnUse">
<stop stop-color="white"/>
<stop offset="0.669792"/>
</linearGradient>
</defs>
</svg>
